<svg width="16.000000" height="12.000000" viewBox="0 0 16 12" fill="none" xmlns="http://www.w3.org/2000/svg" xmlns:xlink="http://www.w3.org/1999/xlink">
	<desc>
			Created with Pixso.
	</desc>
	<defs/>
	<path id="Symbol" d="M6.04 6.98C6.6 7.41 7.39 8.02 8 8C8.57 8.02 9.35 7.42 9.91 6.99C10.05 6.88 10.17 6.79 10.28 6.71C14.43 3.71 14.75 3.43 15.68 2.68C15.87 2.56 16 2.34 16 2.09L16 1.5C16 0.68 15.31 0 14.5 0L1.5 0C0.65 0 0 0.68 0 1.5L0 2.09C0 2.34 0.09 2.56 0.28 2.68C1.21 3.43 1.53 3.71 5.68 6.71C5.78 6.79 5.9 6.88 6.04 6.98ZM16 4.12C16 3.96 15.81 3.87 15.68 3.96C14.96 4.53 14.06 5.21 10.87 7.53C10.25 8 9.09 9.03 8 9.03C6.87 9.03 5.75 8 5.09 7.53C1.9 5.21 1 4.53 0.28 3.96C0.15 3.87 0 3.96 0 4.12L0 10.5C0 11.34 0.65 12 1.5 12L14.5 12C15.31 12 16 11.34 16 10.5L16 4.12Z" fill="#4A4A4A" fill-opacity="1.000000" fill-rule="evenodd"/>
</svg>
