<svg width="12.000000" height="16.015625" viewBox="0 0 12 16.0156" fill="none" xmlns="http://www.w3.org/2000/svg" xmlns:xlink="http://www.w3.org/1999/xlink">
	<desc>
			Created with Pixso.
	</desc>
	<defs/>
	<path id="Symbol" d="M0 6C0 8.43 0.81 9.12 5.37 15.68C5.65 16.12 6.31 16.12 6.59 15.68C11.15 9.12 12 8.43 12 6C12 2.68 9.31 0 6 0C2.65 0 0 2.68 0 6ZM8.5 6C8.5 7.4 7.37 8.5 6 8.5C4.59 8.5 3.5 7.4 3.5 6C3.5 4.62 4.59 3.5 6 3.5C7.37 3.5 8.5 4.62 8.5 6Z" fill="#4A4A4A" fill-opacity="1.000000" fill-rule="evenodd"/>
</svg>
