<svg width="14.000000" height="14.000000" viewBox="0 0 14 14" fill="none" xmlns="http://www.w3.org/2000/svg" xmlns:xlink="http://www.w3.org/1999/xlink">
	<desc>
			Created with Pixso.
	</desc>
	<defs/>
	<path id="Symbol" d="M13.95 9.89C14.01 8.73 14.01 5.26 13.95 4.1C13.89 2.98 13.64 1.98 12.82 1.17C12.01 0.35 11.01 0.1 9.89 0.04C8.73 -0.02 5.26 -0.02 4.1 0.04C2.98 0.1 2.01 0.35 1.17 1.17C0.35 1.98 0.1 2.98 0.04 4.1C-0.02 5.26 -0.02 8.73 0.04 9.89C0.1 11.01 0.35 11.98 1.17 12.82C2.01 13.64 2.98 13.89 4.1 13.95C5.26 14.01 8.73 14.01 9.89 13.95C11.01 13.89 12.01 13.64 12.82 12.82C13.64 11.98 13.89 11.01 13.95 9.89ZM12.73 7.51C12.75 8.64 12.77 10.33 12.45 11.1C12.23 11.73 11.73 12.2 11.14 12.45C10.34 12.77 8.64 12.75 7.53 12.73C7.34 12.73 7.16 12.73 7.01 12.73C6.86 12.73 6.67 12.73 6.48 12.73C5.35 12.75 3.66 12.77 2.89 12.45C2.26 12.2 1.79 11.73 1.54 11.1C1.22 10.33 1.24 8.64 1.26 7.51C1.26 7.32 1.26 7.13 1.26 6.98C1.26 6.83 1.26 6.65 1.26 6.46C1.24 5.35 1.22 3.65 1.54 2.85C1.79 2.26 2.26 1.79 2.89 1.54C3.66 1.22 5.35 1.24 6.48 1.26C6.67 1.26 6.86 1.26 7.01 1.26C7.16 1.26 7.34 1.26 7.53 1.26C8.64 1.24 10.34 1.22 11.14 1.54C11.73 1.76 12.2 2.26 12.45 2.85C12.77 3.65 12.75 5.35 12.73 6.46C12.73 6.65 12.73 6.83 12.73 6.98C12.73 7.13 12.73 7.32 12.73 7.51ZM10.73 4.1C11.2 4.1 11.57 3.73 11.57 3.26C11.57 2.79 11.2 2.42 10.73 2.42C10.26 2.42 9.89 2.79 9.89 3.26C9.89 3.73 10.26 4.1 10.73 4.1ZM10.6 6.98C10.6 5.01 8.98 3.39 7.01 3.39C5.01 3.39 3.42 5.01 3.42 6.98C3.42 8.98 5.01 10.57 7.01 10.57C8.98 10.57 10.6 8.98 10.6 6.98ZM9.32 6.98C9.32 8.29 8.29 9.32 7.01 9.32C5.73 9.32 4.67 8.29 4.67 6.98C4.67 5.7 5.7 4.67 7.01 4.67C8.29 4.67 9.32 5.7 9.32 6.98Z" fill="#4A4A4A" fill-opacity="1.000000" fill-rule="evenodd"/>
</svg>
