<svg width="16.013489" height="15.992676" viewBox="0 0 16.0135 15.9927" fill="none" xmlns="http://www.w3.org/2000/svg" xmlns:xlink="http://www.w3.org/1999/xlink">
	<desc>
			Created with Pixso.
	</desc>
	<defs/>
	<path id="Symbol" d="M16.01 1.49C16.01 1.14 15.76 0.86 15.41 0.77L12.16 0.02C11.82 -0.07 11.45 0.11 11.29 0.46L9.79 3.96C9.66 4.27 9.76 4.61 10.01 4.83L11.91 6.39C10.79 8.77 8.82 10.77 6.38 11.93L4.82 10.02C4.6 9.77 4.26 9.68 3.95 9.8L0.45 11.3C0.1 11.46 -0.05 11.83 0.01 12.18L0.76 15.43C0.85 15.77 1.13 15.99 1.51 15.99C9.51 15.99 16.01 9.52 16.01 1.49Z" fill="#4A4A4A" fill-opacity="1.000000" fill-rule="evenodd"/>
</svg>
